<svg width="20" height="20" viewBox="0 0 20 20" fill="none" xmlns="http://www.w3.org/2000/svg">
<path d="M8.75684 16.6465C10.5318 16.6461 12.2556 16.0519 13.6538 14.9585L18.0498 19.3545L19.4638 17.9405L15.0678 13.5445C16.1618 12.1461 16.7564 10.4219 16.7568 8.64648C16.7568 4.23548 13.1678 0.646484 8.75684 0.646484C4.34584 0.646484 0.756836 4.23548 0.756836 8.64648C0.756836 13.0575 4.34584 16.6465 8.75684 16.6465ZM8.75684 2.64648C12.0658 2.64648 14.7568 5.33748 14.7568 8.64648C14.7568 11.9555 12.0658 14.6465 8.75684 14.6465C5.44784 14.6465 2.75684 11.9555 2.75684 8.64648C2.75684 5.33748 5.44784 2.64648 8.75684 2.64648Z" fill="#353535"/>
</svg>
