<svg width="24" height="22" viewBox="0 0 24 22" fill="none" xmlns="http://www.w3.org/2000/svg">
<path d="M1.33581 12.4103C1.05967 12.4103 0.835815 12.1864 0.835815 11.9103L0.835815 10.0897C0.835815 9.8136 1.05967 9.58974 1.33581 9.58974L10.0687 9.58974C10.3448 9.58974 10.5687 9.36589 10.5687 9.08974L10.5687 0.499998C10.5687 0.223856 10.7925 -2.34257e-06 11.0687 -2.35464e-06L12.9313 -2.43606e-06C13.2074 -2.44813e-06 13.4313 0.223855 13.4313 0.499998L13.4313 9.08974C13.4313 9.36589 13.6552 9.58974 13.9313 9.58974L22.6642 9.58974C22.9403 9.58974 23.1642 9.8136 23.1642 10.0897L23.1642 11.9103C23.1642 12.1864 22.9403 12.4103 22.6642 12.4103L13.9313 12.4103C13.6552 12.4103 13.4313 12.6341 13.4313 12.9103L13.4313 21.5C13.4313 21.7761 13.2074 22 12.9313 22L11.0687 22C10.7925 22 10.5687 21.7761 10.5687 21.5L10.5687 12.9103C10.5687 12.6341 10.3448 12.4103 10.0687 12.4103L1.33581 12.4103Z" fill="#F7F7F7"/>
</svg>
