<svg width="21" height="21" viewBox="0 0 21 21" fill="none" xmlns="http://www.w3.org/2000/svg">
<path fill-rule="evenodd" clip-rule="evenodd" d="M2.25439 0.324585C1.55263 0.324585 0.5 0.675462 0.5 2.07897V18.9211C0.5 20.3246 1.55263 20.6755 2.25439 20.6755H18.7456C19.4474 20.6755 20.5 20.3246 20.5 18.9211V6.99125C20.5 5.58774 19.763 4.7656 19.4474 4.44996L16.3746 1.37722C16.0237 1.02634 15.0965 0.324585 13.1316 0.324585H2.25439ZM7.16667 13.6053C7.16667 13.053 7.61438 12.6053 8.16667 12.6053H12.8333C13.3856 12.6053 13.8333 13.053 13.8333 13.6053V17.5702C13.8333 18.1225 13.3856 18.5702 12.8333 18.5702H8.16667C7.61438 18.5702 7.16667 18.1225 7.16667 17.5702V13.6053ZM5.0614 5.99125C5.0614 6.54354 5.50912 6.99125 6.0614 6.99125H12.8333C13.3856 6.99125 13.8333 6.54354 13.8333 5.99125V2.86587C13.8333 2.62506 14.0285 2.42985 14.2694 2.42985C14.385 2.42985 14.4959 2.47579 14.5777 2.55756L18.1018 6.08173C18.2894 6.26927 18.3947 6.52362 18.3947 6.78884V17.5702C18.3947 18.1225 17.947 18.5702 17.3947 18.5702H16.9386C16.3863 18.5702 15.9386 18.1225 15.9386 17.5702V12.2544C15.9386 10.8509 14.886 10.5 14.1842 10.5H6.81579C6.11404 10.5 5.0614 10.8509 5.0614 12.2544V17.5702C5.0614 18.1225 4.61369 18.5702 4.0614 18.5702H3.60526C3.05298 18.5702 2.60526 18.1225 2.60526 17.5702V3.42985C2.60526 2.87756 3.05298 2.42985 3.60526 2.42985H4.0614C4.61369 2.42985 5.0614 2.87756 5.0614 3.42985V5.99125ZM10.2719 4.88599C9.71965 4.88599 9.27193 4.43827 9.27193 3.88599V3.42985C9.27193 2.87756 9.71965 2.42985 10.2719 2.42985H10.7281C11.2804 2.42985 11.7281 2.87756 11.7281 3.42985V3.88599C11.7281 4.43827 11.2804 4.88599 10.7281 4.88599H10.2719Z" fill="#F7F7F7"/>
</svg>
