<svg width="19" height="21" viewBox="0 0 19 21" fill="none" xmlns="http://www.w3.org/2000/svg">
<path d="M2.388 18.2329C2.388 18.7486 2.59871 19.2432 2.97379 19.6079C3.34886 19.9725 3.85757 20.1774 4.388 20.1774H14.388C14.9184 20.1774 15.4271 19.9725 15.8022 19.6079C16.1773 19.2432 16.388 18.7486 16.388 18.2329V6.56626H18.388V4.62181H14.388V2.67737C14.388 2.16167 14.1773 1.66709 13.8022 1.30244C13.4271 0.937786 12.9184 0.732925 12.388 0.732925H6.388C5.85757 0.732925 5.34886 0.937786 4.97379 1.30244C4.59871 1.66709 4.388 2.16167 4.388 2.67737V4.62181H0.388V6.56626H2.388V18.2329ZM6.388 2.67737H12.388V4.62181H6.388V2.67737ZM14.388 6.56626V18.2329H4.388V6.56626H14.388Z" fill="#F7F7F7"/>
<path d="M6.388 8.5107H8.388V16.2885H6.388V8.5107ZM10.388 8.5107H12.388V16.2885H10.388V8.5107Z" fill="#F7F7F7"/>
</svg>

