<svg width="45" height="56" viewBox="0 0 45 56" fill="none" xmlns="http://www.w3.org/2000/svg">
<path d="M5.625 55.5H39.375C40.8668 55.5 42.2976 54.9205 43.3525 53.8891C44.4074 52.8576 45 51.4587 45 50V17L28.125 0.5H5.625C4.13316 0.5 2.70242 1.07946 1.64752 2.11091C0.592632 3.14236 0 4.54131 0 6V50C0 51.4587 0.592632 52.8576 1.64752 53.8891C2.70242 54.9205 4.13316 55.5 5.625 55.5ZM25.3125 6L39.375 19.75H25.3125V6ZM12.6562 25.25C13.2104 25.2502 13.7592 25.3571 14.2711 25.5646C14.7831 25.7722 15.2482 26.0763 15.6399 26.4596C16.0317 26.8429 16.3424 27.2978 16.5543 27.7985C16.7662 28.2993 16.8752 28.8359 16.875 29.3778C16.8748 29.9196 16.7655 30.4562 16.5532 30.9567C16.341 31.4573 16.03 31.9121 15.638 32.2951C15.2459 32.6782 14.7806 32.982 14.2685 33.1892C13.7564 33.3964 13.2076 33.5029 12.6534 33.5028C11.5342 33.5024 10.4609 33.0673 9.66975 32.2932C8.87858 31.5191 8.43431 30.4694 8.43469 29.375C8.43506 28.2806 8.88004 27.2312 9.67174 26.4576C10.4634 25.684 11.537 25.2496 12.6562 25.25ZM14.0625 39L18.5541 42.7483L25.3125 30.75L36.5625 47.25H8.4375L14.0625 39Z" fill="#353535"/>
</svg>
