<svg width="16" height="17" viewBox="0 0 16 17" fill="none" xmlns="http://www.w3.org/2000/svg">
<path d="M0.157783 2.68903C-0.0374788 2.49377 -0.0374784 2.17719 0.157784 1.98193L1.26377 0.875938C1.45903 0.680676 1.77562 0.680676 1.97088 0.875938L7.42829 6.33335C7.62355 6.52861 7.94014 6.52861 8.1354 6.33335L13.5928 0.875937C13.7881 0.680675 14.1047 0.680675 14.2999 0.875937L15.4059 1.98193C15.6012 2.17719 15.6012 2.49377 15.4059 2.68903L9.94849 8.14645C9.75323 8.34171 9.75323 8.65829 9.94849 8.85355L15.4059 14.311C15.6012 14.5062 15.6012 14.8228 15.4059 15.0181L14.2999 16.1241C14.1047 16.3193 13.7881 16.3193 13.5928 16.1241L8.1354 10.6666C7.94014 10.4714 7.62355 10.4714 7.42829 10.6666L1.97088 16.1241C1.77562 16.3193 1.45903 16.3193 1.26377 16.1241L0.157784 15.0181C-0.0374784 14.8228 -0.0374786 14.5062 0.157784 14.311L5.6152 8.85355C5.81046 8.65829 5.81046 8.34171 5.6152 8.14645L0.157783 2.68903Z" fill="#F1F6F9"/>
</svg>
